<svg xmlns="http://www.w3.org/2000/svg" width="81.608" height="92.851" viewBox="0 0 81.608 92.851"><g transform="translate(21.762 10.881)"><path d="M170.042,60a19.039,19.039,0,0,0-10.249,35.085,19.435,19.435,0,0,0,18.938,1.034,2.72,2.72,0,0,0-2.274-4.943,14.093,14.093,0,0,1-13.729-.673,13.6,13.6,0,1,1,20.915-11.463,2.72,2.72,0,0,1-5.44.041c0-.014,0-.028,0-.041a8.173,8.173,0,1,0-2.72,6.076,8.156,8.156,0,0,0,13.6-6.076A19.063,19.063,0,0,0,170.042,60Zm2.682,19.478a2.714,2.714,0,1,1,.019-.747A2.723,2.723,0,0,0,172.724,79.478Z" transform="translate(-151 -60)"/></g><g transform="translate(0)"><g transform="translate(0)"><path d="M112.607,35.722a2.739,2.739,0,0,0-.8-1.919L101.727,23.718v-21A2.72,2.72,0,0,0,99.006,0H44.6a2.72,2.72,0,0,0-2.72,2.72v21L31.8,33.8c-.009.009-.017.02-.027.03a2.732,2.732,0,0,0-.77,1.89s0,0,0,.005V84.691a8.17,8.17,0,0,0,8.161,8.161h65.286a8.169,8.169,0,0,0,8.161-8.161V35.727S112.607,35.723,112.607,35.722Zm-10.881-4.309,4.314,4.314-4.314,4.314ZM47.322,24.846V5.441H96.286V45.48L81.558,60.208H62.05L47.322,45.48Zm-5.441,6.566V40.04l-4.314-4.314ZM36.441,83.564V42.293L57.076,62.929Zm3.847,3.847L62.05,65.649H81.558L103.32,87.411Zm66.879-3.847L86.532,62.929l20.635-20.635Z" transform="translate(-31)"/></g></g></svg>