<svg xmlns="http://www.w3.org/2000/svg" width="41" height="41" viewBox="0 0 41 41">
  <g id="Grupo_18" data-name="Grupo 18" transform="translate(-1718 -29)">
    <circle id="Elipse_2" data-name="Elipse 2" cx="20.5" cy="20.5" r="20.5" transform="translate(1718 29)" fill="#9344a5"/>
    <path id="Trazado_1" data-name="Trazado 1" d="M19.616,0H2.6A2.607,2.607,0,0,0,0,2.6V19.616a2.607,2.607,0,0,0,2.6,2.6H19.616a2.607,2.607,0,0,0,2.6-2.6V2.6A2.607,2.607,0,0,0,19.616,0Zm.868,19.616a.869.869,0,0,1-.868.868H14.669V13.41H17.35l.443-2.691H14.669V8.853a1.28,1.28,0,0,1,1.3-1.3H17.75V4.861H15.971a3.992,3.992,0,0,0-3.992,4v1.859h-2.6V13.41h2.6v7.074H2.6a.869.869,0,0,1-.868-.868V2.6A.869.869,0,0,1,2.6,1.736H19.616a.869.869,0,0,1,.868.868Z" transform="translate(1727.39 38.736)" fill="#fff"/>
  </g>
</svg>
