<svg xmlns="http://www.w3.org/2000/svg" width="41" height="41" viewBox="0 0 41 41">
  <g id="Grupo_19" data-name="Grupo 19" transform="translate(-1773 -29)">
    <circle id="Elipse_1" data-name="Elipse 1" cx="20.5" cy="20.5" r="20.5" transform="translate(1773 29)" fill="#9344a5"/>
    <path id="Trazado_2" data-name="Trazado 2" d="M22.609,6.533a8.119,8.119,0,0,0-.516-2.7A5.692,5.692,0,0,0,18.841.586a8.14,8.14,0,0,0-2.7-.516C14.956.013,14.578,0,11.562,0S8.167.013,6.982.065a8.122,8.122,0,0,0-2.7.516A5.422,5.422,0,0,0,2.316,1.867,5.471,5.471,0,0,0,1.035,3.833a8.141,8.141,0,0,0-.516,2.7C.462,7.718.449,8.1.449,11.112s.013,3.394.065,4.579a8.119,8.119,0,0,0,.517,2.7,5.691,5.691,0,0,0,3.251,3.251,8.141,8.141,0,0,0,2.7.516c1.185.052,1.563.065,4.579.065s3.394-.013,4.579-.065a8.117,8.117,0,0,0,2.7-.516,5.684,5.684,0,0,0,3.251-3.251,8.147,8.147,0,0,0,.516-2.7c.052-1.185.065-1.563.065-4.579S22.661,7.718,22.609,6.533Zm-2,9.072a6.09,6.09,0,0,1-.382,2.062,3.686,3.686,0,0,1-2.11,2.11,6.112,6.112,0,0,1-2.062.382c-1.172.052-1.523.065-4.488.065s-3.321-.013-4.488-.065a6.087,6.087,0,0,1-2.062-.382,3.419,3.419,0,0,1-1.276-.829,3.455,3.455,0,0,1-.829-1.276,6.113,6.113,0,0,1-.382-2.062c-.052-1.172-.065-1.524-.065-4.488s.013-3.321.065-4.488A6.087,6.087,0,0,1,2.91,4.571a3.377,3.377,0,0,1,.834-1.276A3.449,3.449,0,0,1,5.02,2.466a6.116,6.116,0,0,1,2.062-.382c1.172-.052,1.524-.065,4.488-.065s3.321.013,4.488.065a6.09,6.09,0,0,1,2.062.382,3.417,3.417,0,0,1,1.276.829,3.454,3.454,0,0,1,.829,1.276,6.115,6.115,0,0,1,.382,2.062c.052,1.172.065,1.523.065,4.488S20.66,14.433,20.608,15.6Zm0,0" transform="translate(1781.943 38.736)" fill="#fff"/>
    <path id="Trazado_3" data-name="Trazado 3" d="M130.657,124.5a5.708,5.708,0,1,0,5.708,5.708A5.71,5.71,0,0,0,130.657,124.5Zm0,9.411a3.7,3.7,0,1,1,3.7-3.7A3.7,3.7,0,0,1,130.657,133.911Zm0,0" transform="translate(1662.847 -80.36)" fill="#fff"/>
    <path id="Trazado_4" data-name="Trazado 4" d="M365.115,89.934a1.333,1.333,0,1,1-1.333-1.333A1.333,1.333,0,0,1,365.115,89.934Zm0,0" transform="translate(1435.656 -46.02)" fill="#fff"/>
  </g>
</svg>
